<?xml version="1.0" encoding="utf-8"?>
<!-- Generator: Adobe Illustrator 28.0.0, SVG Export Plug-In . SVG Version: 6.00 Build 0)  -->
<svg version="1.1" id="Layer_1" xmlns="http://www.w3.org/2000/svg" xmlns:xlink="http://www.w3.org/1999/xlink" x="0px" y="0px"
	 viewBox="0 0 1080 1080" style="enable-background:new 0 0 1080 1080;" xml:space="preserve">
<style type="text/css">
	.st0{fill:none;}
	.st1{fill:none;stroke:#2A9F2D;stroke-width:1.5;stroke-miterlimit:10;}
	.st2{fill:#FFFFFF;}
</style>
<rect class="st0" width="1080" height="1080"/>
<g>
	<polyline class="st1" points="232.5,440.4 441.8,609.2 580.5,711.2 585.5,744.5 546.8,855.4 502,874 	"/>
	<polyline class="st1" points="729.1,737.3 580.5,711.2 588.2,649.4 441.8,609.2 499.4,549.3 527.6,492.4 452.9,358.2 352.3,320.7 	
		"/>
	<polyline class="st1" points="949.8,391.9 805.3,411 588.2,649.4 	"/>
	<polyline class="st1" points="791.7,342.7 792,390.6 805.3,411 	"/>
</g>
<g>
	<g>
		<circle class="st2" cx="232.5" cy="440.4" r="8.9"/>
	</g>
	<g>
		<circle class="st2" cx="441.8" cy="609.2" r="8.9"/>
	</g>
	<g>
		<circle class="st2" cx="499.4" cy="549.3" r="5"/>
	</g>
	<g>
		<circle class="st2" cx="792" cy="342.7" r="5"/>
	</g>
	<g>
		<circle class="st2" cx="949.8" cy="391.9" r="5"/>
	</g>
	<g>
		<circle class="st2" cx="352.3" cy="320.7" r="5"/>
	</g>
	<g>
		<circle class="st2" cx="729.1" cy="737.3" r="8.9"/>
	</g>
	<g>
		<circle class="st2" cx="580.5" cy="711.2" r="6.6"/>
	</g>
	<g>
		<circle class="st2" cx="585.5" cy="744.5" r="4.3"/>
	</g>
	<g>
		<circle class="st2" cx="588.2" cy="649.4" r="4.3"/>
	</g>
	<g>
		<circle class="st2" cx="805.3" cy="411" r="4.3"/>
	</g>
	<g>
		<circle class="st2" cx="791.7" cy="390.6" r="4.3"/>
	</g>
	<g>
		<circle class="st2" cx="527.6" cy="492.4" r="4.3"/>
	</g>
	<g>
		<circle class="st2" cx="452.9" cy="358.2" r="4.3"/>
	</g>
	<g>
		<circle class="st2" cx="546.8" cy="855.4" r="4.3"/>
	</g>
	<g>
		<circle class="st2" cx="497.7" cy="874.1" r="4.3"/>
	</g>
</g>
</svg>
