<?xml version="1.0" encoding="utf-8"?>
<!-- Generator: Adobe Illustrator 28.0.0, SVG Export Plug-In . SVG Version: 6.00 Build 0)  -->
<svg version="1.1" id="Layer_1" xmlns="http://www.w3.org/2000/svg" xmlns:xlink="http://www.w3.org/1999/xlink" x="0px" y="0px"
	 viewBox="0 0 1080 1080" style="enable-background:new 0 0 1080 1080;" xml:space="preserve">
<style type="text/css">
	.st0{fill:none;}
	.st1{fill:none;stroke:#2A9F2D;stroke-width:1.5;stroke-miterlimit:10;}
	.st2{fill:#FFFFFF;}
</style>
<rect x="0" class="st0" width="1080" height="1080"/>
<polyline class="st1" points="909.6,557.4 731,483.5 589.3,394.2 509.3,365.1 492.9,389.2 465.6,391.9 "/>
<line class="st1" x1="587.7" y1="618.1" x2="731" y2="483.5"/>
<polyline class="st1" points="280.7,728.2 294,546.9 305.8,494.1 396.5,516.7 545,516.7 589.3,394.2 524.4,412.8 492.9,389.2 "/>
<polyline class="st1" points="334.9,743.1 294,546.9 391.4,653.7 411.8,615 396.5,516.7 "/>
<g>
	<circle class="st2" cx="731" cy="483.5" r="8.9"/>
</g>
<g>
	<circle class="st2" cx="587.7" cy="618.1" r="5"/>
</g>
<g>
	<circle class="st2" cx="524.4" cy="412.8" r="5"/>
</g>
<g>
	<circle class="st2" cx="545" cy="516.7" r="5"/>
</g>
<g>
	<circle class="st2" cx="396.5" cy="516.7" r="5"/>
</g>
<g>
	<circle class="st2" cx="305.8" cy="494.1" r="5"/>
</g>
<g>
	<circle class="st2" cx="294" cy="546.9" r="5"/>
</g>
<g>
	<circle class="st2" cx="411.8" cy="615" r="5"/>
</g>
<g>
	<circle class="st2" cx="280.7" cy="728.2" r="5"/>
</g>
<g>
	<circle class="st2" cx="334.9" cy="743.1" r="5"/>
</g>
<g>
	<circle class="st2" cx="492.9" cy="389.2" r="5"/>
</g>
<g>
	<circle class="st2" cx="465.6" cy="391.9" r="5"/>
</g>
<g>
	<circle class="st2" cx="509.3" cy="365.1" r="5"/>
</g>
<g>
	<circle class="st2" cx="589.3" cy="394.2" r="6.6"/>
</g>
<g>
	<circle class="st2" cx="909.6" cy="557.4" r="6.6"/>
</g>
<g>
	<circle class="st2" cx="391.4" cy="653.7" r="6.6"/>
</g>
</svg>
