<?xml version="1.0" encoding="utf-8"?>
<!-- Generator: Adobe Illustrator 28.0.0, SVG Export Plug-In . SVG Version: 6.00 Build 0)  -->
<svg version="1.1" id="Layer_1" xmlns="http://www.w3.org/2000/svg" xmlns:xlink="http://www.w3.org/1999/xlink" x="0px" y="0px"
	 viewBox="0 0 1080 1080" style="enable-background:new 0 0 1080 1080;" xml:space="preserve">
<style type="text/css">
	.st0{fill:none;}
	.st1{fill:none;stroke:#2A9F2D;stroke-width:1.5;stroke-linejoin:round;stroke-miterlimit:10;}
	.st2{fill:#FFFFFF;}
</style>
<rect class="st0" width="1080" height="1080"/>
<polyline class="st1" points="749.8,241.3 718.3,270.1 610.3,500.6 469,546.5 362.9,586.4 551.8,595.3 716.1,672.7 741,690.7 "/>
<polyline class="st1" points="451.7,429.7 474.6,375.9 500.4,338.6 610.3,500.6 716.1,672.7 718.3,270.1 "/>
<g>
	<circle class="st2" cx="474.6" cy="375.9" r="8.9"/>
</g>
<g>
	<circle class="st2" cx="362.9" cy="586.4" r="6.6"/>
</g>
<g>
	<circle class="st2" cx="610.3" cy="500.6" r="6.6"/>
</g>
<g>
	<circle class="st2" cx="718.3" cy="270.1" r="6.6"/>
</g>
<g>
	<circle class="st2" cx="500.4" cy="338.6" r="4.3"/>
</g>
<g>
	<circle class="st2" cx="716.1" cy="672.7" r="4.3"/>
</g>
<g>
	<circle class="st2" cx="451.7" cy="429.7" r="4.3"/>
</g>
<g>
	<circle class="st2" cx="469" cy="546.5" r="4.3"/>
</g>
<g>
	<circle class="st2" cx="551.8" cy="595.3" r="4.3"/>
</g>
<g>
	<circle class="st2" cx="741" cy="690.7" r="4.3"/>
</g>
<g>
	<circle class="st2" cx="749.8" cy="241.3" r="4.3"/>
</g>
</svg>
