<?xml version="1.0" encoding="utf-8"?>
<!-- Generator: Adobe Illustrator 28.1.0, SVG Export Plug-In . SVG Version: 6.00 Build 0)  -->
<svg version="1.1" id="Layer_1" xmlns="http://www.w3.org/2000/svg" xmlns:xlink="http://www.w3.org/1999/xlink" x="0px" y="0px"
	 viewBox="0 0 1080 1080" style="enable-background:new 0 0 1080 1080;" xml:space="preserve">
<style type="text/css">
	.st0{fill:none;}
	.st1{fill:none;stroke:#2A9F2D;stroke-width:1.5;stroke-miterlimit:10;}
	.st2{fill:#FFFFFF;}
</style>
<rect class="st0" width="1080" height="1080"/>
<polygon class="st1" points="604,265.3 573.4,161.7 607.7,160.1 "/>
<polygon class="st1" points="631.3,747 558.1,549.5 556.4,405.5 452.7,365.6 392.8,487.9 507.6,609.3 "/>
<polyline class="st1" points="521.2,847.7 631.3,747 723.4,755.3 760,768.6 "/>
<line class="st1" x1="604" y1="265.3" x2="556.4" y2="405.5"/>
<g>
	<circle class="st2" cx="631.3" cy="747" r="10.7"/>
</g>
<g>
	<circle class="st2" cx="507.6" cy="609.3" r="6.6"/>
</g>
<g>
	<circle class="st2" cx="723.4" cy="755.3" r="6.6"/>
</g>
<g>
	<circle class="st2" cx="556.4" cy="405.5" r="6.6"/>
</g>
<g>
	<circle class="st2" cx="452.7" cy="365.6" r="4.3"/>
</g>
<g>
	<circle class="st2" cx="573.4" cy="161.7" r="4.3"/>
</g>
<g>
	<circle class="st2" cx="392.8" cy="487.9" r="4.3"/>
</g>
<g>
	<circle class="st2" cx="521.2" cy="847.7" r="4.3"/>
</g>
<g>
	<circle class="st2" cx="760" cy="768.6" r="4.3"/>
</g>
<g>
	<circle class="st2" cx="558.1" cy="549.5" r="4.3"/>
</g>
<g>
	<circle class="st2" cx="604" cy="265.3" r="4.3"/>
</g>
<g>
	<circle class="st2" cx="607.7" cy="160.1" r="4.3"/>
</g>
</svg>
