<?xml version="1.0" encoding="utf-8"?>
<!-- Generator: Adobe Illustrator 28.1.0, SVG Export Plug-In . SVG Version: 6.00 Build 0)  -->
<svg version="1.1" id="Layer_1" xmlns="http://www.w3.org/2000/svg" xmlns:xlink="http://www.w3.org/1999/xlink" x="0px" y="0px"
	 viewBox="0 0 1080 1080" style="enable-background:new 0 0 1080 1080;" xml:space="preserve">
<style type="text/css">
	.st0{fill:none;}
	.st1{fill:none;stroke:#2A9F2D;stroke-width:1.5;stroke-miterlimit:10;}
	.st2{fill:#FFFFFF;}
</style>
<rect class="st0" width="1080" height="1080"/>
<polygon class="st1" points="449.7,376.6 503.8,288.8 494.6,409.5 "/>
<polygon class="st1" points="558.3,401.5 688.7,434.7 606.2,462.1 508.7,581 484.9,695.8 430.6,635.5 "/>
<line class="st1" x1="350.8" y1="709.5" x2="430.6" y2="635.5"/>
<line class="st1" x1="494.6" y1="409.5" x2="558.3" y2="401.5"/>
<g>
	<circle class="st2" cx="606.2" cy="462.1" r="4.3"/>
</g>
<g>
	<circle class="st2" cx="494.3" cy="409.5" r="4.3"/>
</g>
<g>
	<circle class="st2" cx="449.7" cy="376.6" r="4.3"/>
</g>
<g>
	<circle class="st2" cx="503.8" cy="288.8" r="4.3"/>
</g>
<g>
	<circle class="st2" cx="430.6" cy="635.5" r="6.3"/>
</g>
<g>
	<circle class="st2" cx="484.9" cy="695.8" r="8.7"/>
</g>
<g>
	<circle class="st2" cx="350.8" cy="709.5" r="6.3"/>
</g>
<g>
	<circle class="st2" cx="508.7" cy="581" r="4.3"/>
</g>
<g>
	<circle class="st2" cx="688.7" cy="434.7" r="10.1"/>
</g>
<g>
	<circle class="st2" cx="558.3" cy="401.5" r="17.6"/>
</g>
</svg>
