<?xml version="1.0" encoding="utf-8"?>
<!-- Generator: Adobe Illustrator 28.1.0, SVG Export Plug-In . SVG Version: 6.00 Build 0)  -->
<svg version="1.1" id="Layer_1" xmlns="http://www.w3.org/2000/svg" xmlns:xlink="http://www.w3.org/1999/xlink" x="0px" y="0px"
	 viewBox="0 0 1080 1080" style="enable-background:new 0 0 1080 1080;" xml:space="preserve">
<style type="text/css">
	.st0{fill:none;}
	.st1{fill:none;stroke:#2A9F2D;stroke-width:1.5;stroke-miterlimit:10;}
	.st2{fill:#FFFFFF;}
</style>
<rect class="st0" width="1080" height="1080"/>
<polyline class="st1" points="449.4,648.7 344.9,687.8 233.4,609.6 228.6,544.6 259.3,520.7 398.2,428.4 547.8,418.8 635.1,283.6 
	"/>
<polyline class="st1" points="228.6,544.6 146.5,522.1 115.7,548.6 122.4,577.9 162.9,604 233.4,609.6 "/>
<g>
	<circle class="st2" cx="344.9" cy="687.8" r="4.3"/>
</g>
<g>
	<circle class="st2" cx="233.4" cy="609.5" r="4.3"/>
</g>
<g>
	<circle class="st2" cx="259.3" cy="520.7" r="4.3"/>
</g>
<g>
	<circle class="st2" cx="398.2" cy="428.4" r="4.3"/>
</g>
<g>
	<circle class="st2" cx="547.8" cy="418.8" r="5.6"/>
</g>
<g>
	<circle class="st2" cx="635.1" cy="283.6" r="4.1"/>
</g>
<g>
	<circle class="st2" cx="122.4" cy="577.9" r="3.2"/>
</g>
<g>
	<circle class="st2" cx="115.7" cy="548.6" r="3.2"/>
</g>
<g>
	<circle class="st2" cx="146.5" cy="522.1" r="3.2"/>
</g>
<g>
	<circle class="st2" cx="228.6" cy="544.6" r="3.2"/>
</g>
<g>
	<circle class="st2" cx="162.9" cy="604" r="3.2"/>
</g>
<line class="st1" x1="449.4" y1="648.7" x2="925.6" y2="367.9"/>
<g>
	<circle class="st2" cx="927.6" cy="367.9" r="14.8"/>
</g>
<g>
	<circle class="st2" cx="449.4" cy="648.7" r="7"/>
</g>
</svg>
