<?xml version="1.0" encoding="utf-8"?>
<!-- Generator: Adobe Illustrator 28.1.0, SVG Export Plug-In . SVG Version: 6.00 Build 0)  -->
<svg version="1.1" id="Layer_1" xmlns="http://www.w3.org/2000/svg" xmlns:xlink="http://www.w3.org/1999/xlink" x="0px" y="0px"
	 viewBox="0 0 1080 1080" style="enable-background:new 0 0 1080 1080;" xml:space="preserve">
<style type="text/css">
	.st0{fill:none;}
	.st1{fill:none;stroke:#2A9F2D;stroke-width:1.5;stroke-miterlimit:10;}
	.st2{fill:#FFFFFF;}
</style>
<rect class="st0" width="1080" height="1080"/>
<polyline class="st1" points="751.5,758.7 690.5,620.6 654.4,578.9 705.6,596.1 802.5,688.9 "/>
<polygon class="st1" points="415.4,530.5 621.3,554 469.2,628 "/>
<line class="st1" x1="654.4" y1="578.9" x2="621.3" y2="554"/>
<polyline class="st1" points="469.2,628 430.2,749.3 358.4,774.3 "/>
<polyline class="st1" points="422.9,449.3 415.4,530.5 393.2,505.5 394.5,447.3 368.2,435.9 311.4,392 351.9,357.8 420.5,435.6 
	475.5,392.7 508.5,347.3 640.6,405.1 "/>
<polyline class="st1" points="212,493.2 282.8,471.9 394.5,447.3 "/>
<g>
	<circle class="st2" cx="212" cy="493.2" r="4.3"/>
</g>
<g>
	<circle class="st2" cx="282.8" cy="471.9" r="4.3"/>
</g>
<g>
	<circle class="st2" cx="420.5" cy="435.6" r="4.3"/>
</g>
<g>
	<circle class="st2" cx="422.9" cy="449.3" r="4.3"/>
</g>
<g>
	<circle class="st2" cx="415.4" cy="530.5" r="4.3"/>
</g>
<g>
	<circle class="st2" cx="621.3" cy="554" r="4.3"/>
</g>
<g>
	<circle class="st2" cx="705.6" cy="596.1" r="4.3"/>
</g>
<g>
	<circle class="st2" cx="469.2" cy="628" r="4.3"/>
</g>
<g>
	<circle class="st2" cx="430.2" cy="749.3" r="5.8"/>
</g>
<g>
	<circle class="st2" cx="358.4" cy="774.3" r="7.2"/>
</g>
<g>
	<circle class="st2" cx="508.5" cy="347.3" r="4.3"/>
</g>
<g>
	<circle class="st2" cx="394.5" cy="447.3" r="4.3"/>
</g>
<g>
	<circle class="st2" cx="351.9" cy="357.8" r="4.3"/>
</g>
<g>
	<circle class="st2" cx="311.4" cy="392" r="2.7"/>
</g>
<g>
	<circle class="st2" cx="368.2" cy="435.9" r="2.7"/>
</g>
<g>
	<circle class="st2" cx="393.2" cy="505.5" r="2.7"/>
</g>
<g>
	<circle class="st2" cx="654.4" cy="578.9" r="2.7"/>
</g>
<g>
	<circle class="st2" cx="690.5" cy="620.6" r="2.7"/>
</g>
<g>
	<circle class="st2" cx="802.5" cy="688.9" r="2.7"/>
</g>
<g>
	<circle class="st2" cx="751.5" cy="758.7" r="2.7"/>
</g>
<g>
	<circle class="st2" cx="475.5" cy="392.7" r="2.7"/>
</g>
<g>
	<circle class="st2" cx="640.6" cy="405.1" r="2.7"/>
</g>
</svg>
