<?xml version="1.0" encoding="utf-8"?>
<!-- Generator: Adobe Illustrator 28.1.0, SVG Export Plug-In . SVG Version: 6.00 Build 0)  -->
<svg version="1.1" id="Layer_1" xmlns="http://www.w3.org/2000/svg" xmlns:xlink="http://www.w3.org/1999/xlink" x="0px" y="0px"
	 viewBox="0 0 1080 1080" style="enable-background:new 0 0 1080 1080;" xml:space="preserve">
<style type="text/css">
	.st0{fill:none;}
	.st1{fill:none;stroke:#2A9F2D;stroke-width:1.5;stroke-miterlimit:10;}
	.st2{fill:#FFFFFF;}
</style>
<rect class="st0" width="1080" height="1080"/>
<polygon class="st1" points="447.1,448.6 470.1,706.8 506.9,878.8 559.8,884.3 549.3,909.1 638.9,864.5 688.6,771.7 628.1,608.9 "/>
<polyline class="st1" points="801,720.1 774.4,759.3 688.6,771.7 "/>
<line class="st1" x1="470.1" y1="706.8" x2="628.1" y2="608.9"/>
<g>
	<circle class="st2" cx="774.4" cy="759.3" r="4.3"/>
</g>
<g>
	<circle class="st2" cx="801" cy="720.1" r="4.3"/>
</g>
<g>
	<circle class="st2" cx="447.1" cy="448.6" r="4.3"/>
</g>
<g>
	<circle class="st2" cx="470.1" cy="706.8" r="4.3"/>
</g>
<g>
	<circle class="st2" cx="628.1" cy="608.9" r="5.8"/>
</g>
<g>
	<circle class="st2" cx="689.1" cy="771.7" r="7.2"/>
</g>
<g>
	<circle class="st2" cx="638.9" cy="864.5" r="2.7"/>
</g>
<g>
	<circle class="st2" cx="549.3" cy="909.1" r="2.7"/>
</g>
<g>
	<circle class="st2" cx="559.8" cy="884.3" r="2.7"/>
</g>
<g>
	<circle class="st2" cx="506.9" cy="878.8" r="2.7"/>
</g>
</svg>
