<?xml version="1.0" encoding="utf-8"?>
<!-- Generator: Adobe Illustrator 28.1.0, SVG Export Plug-In . SVG Version: 6.00 Build 0)  -->
<svg version="1.1" id="Layer_1" xmlns="http://www.w3.org/2000/svg" xmlns:xlink="http://www.w3.org/1999/xlink" x="0px" y="0px"
	 viewBox="0 0 1080 1080" style="enable-background:new 0 0 1080 1080;" xml:space="preserve">
<style type="text/css">
	.st0{fill:none;}
	.st1{fill:none;stroke:#2A9F2D;stroke-width:1.5;stroke-miterlimit:10;}
	.st2{fill:#FFFFFF;}
</style>
<rect class="st0" width="1080" height="1080"/>
<polygon class="st1" points="209.1,338.9 216.3,258 278.4,235.2 350.9,260.6 289.5,348.9 "/>
<polygon class="st1" points="510.2,569.5 623.2,534.7 685.7,568.4 887.9,554.3 782.6,702.1 540.5,662.8 "/>
<polyline class="st1" points="289.5,348.9 308.1,396.8 394.2,449.4 510.2,569.5 "/>
<g>
	<circle class="st2" cx="289.5" cy="348.9" r="4.3"/>
</g>
<g>
	<circle class="st2" cx="540.5" cy="662.8" r="4.3"/>
</g>
<g>
	<circle class="st2" cx="887.9" cy="554.3" r="4.3"/>
</g>
<g>
	<circle class="st2" cx="782.6" cy="702.1" r="7.2"/>
</g>
<g>
	<circle class="st2" cx="209.1" cy="338.9" r="7.2"/>
</g>
<g>
	<circle class="st2" cx="216.3" cy="258" r="2.7"/>
</g>
<g>
	<circle class="st2" cx="350.9" cy="260.6" r="2.7"/>
</g>
<g>
	<circle class="st2" cx="510.2" cy="569.5" r="2.7"/>
</g>
<g>
	<circle class="st2" cx="685.7" cy="568.4" r="2.7"/>
</g>
<g>
	<circle class="st2" cx="394.2" cy="449.4" r="2.7"/>
</g>
<g>
	<circle class="st2" cx="623.2" cy="534.7" r="2.7"/>
</g>
<g>
	<circle class="st2" cx="278.4" cy="235.2" r="2.7"/>
</g>
<g>
	<circle class="st2" cx="308.1" cy="396.8" r="2.7"/>
</g>
</svg>
