<?xml version="1.0" encoding="utf-8"?>
<!-- Generator: Adobe Illustrator 28.1.0, SVG Export Plug-In . SVG Version: 6.00 Build 0)  -->
<svg version="1.1" id="Layer_1" xmlns="http://www.w3.org/2000/svg" xmlns:xlink="http://www.w3.org/1999/xlink" x="0px" y="0px"
	 viewBox="0 0 1080 1080" style="enable-background:new 0 0 1080 1080;" xml:space="preserve">
<style type="text/css">
	.st0{fill:none;}
	.st1{fill:none;stroke:#2A9F2D;stroke-width:1.5;stroke-miterlimit:10;}
	.st2{fill:#FFFFFF;}
</style>
<rect class="st0" width="1080" height="1080"/>
<polygon class="st1" points="358.4,843.5 488.1,771.6 592,635.2 727.8,517.3 762.6,352.7 610.5,472.8 514.8,526.8 449.2,613.8 "/>
<polyline class="st1" points="854.9,870.7 592,635.2 514.8,526.8 "/>
<line class="st1" x1="791" y1="323" x2="762.6" y2="352.7"/>
<g>
	<circle class="st2" cx="358.4" cy="843.5" r="4.4"/>
</g>
<g>
	<circle class="st2" cx="727.8" cy="517.3" r="4.4"/>
</g>
<g>
	<circle class="st2" cx="762.6" cy="352.7" r="2.2"/>
</g>
<g>
	<circle class="st2" cx="610.8" cy="472.9" r="2.2"/>
</g>
<g>
	<circle class="st2" cx="791" cy="323" r="3.2"/>
</g>
<g>
	<circle class="st2" cx="854.9" cy="870.7" r="4.4"/>
</g>
<g>
	<circle class="st2" cx="488.1" cy="771.6" r="3.7"/>
</g>
<g>
	<circle class="st2" cx="592" cy="635.2" r="3.2"/>
</g>
<g>
	<circle class="st2" cx="449.2" cy="613.8" r="2.3"/>
</g>
<g>
	<circle class="st2" cx="514.8" cy="526.8" r="8.5"/>
</g>
</svg>
