<?xml version="1.0" encoding="utf-8"?>
<!-- Generator: Adobe Illustrator 28.1.0, SVG Export Plug-In . SVG Version: 6.00 Build 0)  -->
<svg version="1.1" id="Layer_1" xmlns="http://www.w3.org/2000/svg" xmlns:xlink="http://www.w3.org/1999/xlink" x="0px" y="0px"
	 viewBox="0 0 1080 1080" style="enable-background:new 0 0 1080 1080;" xml:space="preserve">
<style type="text/css">
	.st0{fill:none;}
	.st1{fill:none;stroke:#2A9F2D;stroke-width:1.5;stroke-miterlimit:10;}
	.st2{fill:#FFFFFF;}
</style>
<rect class="st0" width="1080" height="1080"/>
<polyline class="st1" points="907,265.2 847.8,344.2 791.5,520.4 669.3,673.5 583.1,693.8 531.1,642.1 450.9,557.8 372.8,423.6 
	268.1,434.2 313.2,683 354.3,728.8 342.9,780.9 267.6,769.9 313.2,683 "/>
<line class="st1" x1="258.4" y1="359.8" x2="268.1" y2="434.2"/>
<line class="st1" x1="384" y1="401.6" x2="372.8" y2="423.6"/>
<g>
	<circle class="st2" cx="267.6" cy="769.9" r="7.8"/>
</g>
<g>
	<circle class="st2" cx="342.9" cy="780.9" r="6.1"/>
</g>
<g>
	<circle class="st2" cx="354.3" cy="728.8" r="3"/>
</g>
<g>
	<circle class="st2" cx="313.2" cy="683" r="3"/>
</g>
<g>
	<circle class="st2" cx="268.1" cy="434.2" r="3"/>
</g>
<g>
	<circle class="st2" cx="372.8" cy="423.6" r="3"/>
</g>
<g>
	<circle class="st2" cx="384" cy="401.6" r="3"/>
</g>
<g>
	<circle class="st2" cx="450.9" cy="557.8" r="3"/>
</g>
<g>
	<circle class="st2" cx="669.3" cy="673.5" r="2.5"/>
</g>
<g>
	<circle class="st2" cx="791.5" cy="520.4" r="2.5"/>
</g>
<g>
	<circle class="st2" cx="847.8" cy="344.2" r="2.5"/>
</g>
<g>
	<circle class="st2" cx="907" cy="265.2" r="2.5"/>
</g>
<g>
	<circle class="st2" cx="583.1" cy="693.8" r="1.9"/>
</g>
<g>
	<circle class="st2" cx="531.8" cy="642.1" r="4.1"/>
</g>
<g>
	<circle class="st2" cx="258.4" cy="359.8" r="3"/>
</g>
</svg>
