<?xml version="1.0" encoding="utf-8"?>
<!-- Generator: Adobe Illustrator 28.1.0, SVG Export Plug-In . SVG Version: 6.00 Build 0)  -->
<svg version="1.1" id="Layer_1" xmlns="http://www.w3.org/2000/svg" xmlns:xlink="http://www.w3.org/1999/xlink" x="0px" y="0px"
	 viewBox="0 0 1080 1080" style="enable-background:new 0 0 1080 1080;" xml:space="preserve">
<style type="text/css">
	.st0{fill:none;}
	.st1{fill:none;stroke:#2A9F2D;stroke-width:1.5;stroke-miterlimit:10;}
	.st2{fill:#FFFFFF;}
</style>
<rect class="st0" width="1080" height="1080"/>
<polyline class="st1" points="805.2,983.6 785.2,894.8 720.5,825.7 697.2,753.1 700.5,709.7 650.1,712.1 588.5,747.6 541.2,706.2 
	505.8,648.1 419.3,618.6 401.5,624 360.8,577.9 365.6,565.2 466.2,474.3 487.3,482 508.6,461.3 552.6,438.2 600.4,440.4 
	656.5,470.4 721.8,403 732.6,336.8 693.9,260.9 556.4,262.7 518,267.3 507.5,300.7 465.5,322.9 407.9,230.1 306.9,189.8 
	269.7,193.1 190.1,232.7 "/>
<g>
	<circle class="st2" cx="190.1" cy="232.7" r="3.5"/>
</g>
<g>
	<circle class="st2" cx="465.5" cy="322.9" r="3.5"/>
</g>
<g>
	<circle class="st2" cx="269.7" cy="193.1" r="2.4"/>
</g>
<g>
	<circle class="st2" cx="306.9" cy="189.8" r="2.4"/>
</g>
<g>
	<circle class="st2" cx="407.9" cy="230.1" r="2.4"/>
</g>
<g>
	<circle class="st2" cx="507.5" cy="300.7" r="2.4"/>
</g>
<g>
	<circle class="st2" cx="518.8" cy="267.3" r="2.4"/>
</g>
<g>
	<circle class="st2" cx="556.4" cy="262.7" r="2.4"/>
</g>
<g>
	<circle class="st2" cx="693.9" cy="260.9" r="2.4"/>
</g>
<g>
	<circle class="st2" cx="732.6" cy="336.8" r="2.4"/>
</g>
<g>
	<circle class="st2" cx="721.8" cy="403" r="2.4"/>
</g>
<g>
	<circle class="st2" cx="656.5" cy="470.4" r="2.4"/>
</g>
<g>
	<circle class="st2" cx="600.4" cy="440.4" r="2.4"/>
</g>
<g>
	<circle class="st2" cx="552.6" cy="438.2" r="2.4"/>
</g>
<g>
	<circle class="st2" cx="508.6" cy="461.3" r="2.4"/>
</g>
<g>
	<circle class="st2" cx="487.3" cy="482" r="2.4"/>
</g>
<g>
	<circle class="st2" cx="466.2" cy="474.3" r="2.4"/>
</g>
<g>
	<circle class="st2" cx="365.6" cy="565.2" r="2.4"/>
</g>
<g>
	<circle class="st2" cx="401.5" cy="623.3" r="2.4"/>
</g>
<g>
	<circle class="st2" cx="541.2" cy="706.2" r="2.4"/>
</g>
<g>
	<circle class="st2" cx="588.5" cy="747.6" r="2.4"/>
</g>
<g>
	<circle class="st2" cx="700.5" cy="709.7" r="2.4"/>
</g>
<g>
	<circle class="st2" cx="697.2" cy="753.1" r="2.4"/>
</g>
<g>
	<circle class="st2" cx="720.5" cy="825.7" r="2.4"/>
</g>
<g>
	<circle class="st2" cx="785.2" cy="894.8" r="2.4"/>
</g>
<g>
	<circle class="st2" cx="805.2" cy="983.6" r="5.9"/>
</g>
<g>
	<circle class="st2" cx="505.8" cy="648.1" r="1.8"/>
</g>
<g>
	<circle class="st2" cx="419.3" cy="618.6" r="3.3"/>
</g>
<g>
	<circle class="st2" cx="650.1" cy="711.9" r="4"/>
</g>
<g>
	<circle class="st2" cx="360.8" cy="577.9" r="2.4"/>
</g>
</svg>
