<?xml version="1.0" encoding="utf-8"?>
<!-- Generator: Adobe Illustrator 28.1.0, SVG Export Plug-In . SVG Version: 6.00 Build 0)  -->
<svg version="1.1" id="Layer_1" xmlns="http://www.w3.org/2000/svg" xmlns:xlink="http://www.w3.org/1999/xlink" x="0px" y="0px"
	 viewBox="0 0 1080 1080" style="enable-background:new 0 0 1080 1080;" xml:space="preserve">
<style type="text/css">
	.st0{fill:none;}
	.st1{fill:none;stroke:#2A9F2D;stroke-width:1.5;stroke-miterlimit:10;}
	.st2{fill:#FFFFFF;}
</style>
<rect class="st0" width="1080" height="1080"/>
<polygon class="st1" points="559.5,822 745.8,683.3 684.6,506.8 612.8,522.7 556,632.7 "/>
<polyline class="st1" points="755,862.4 782.1,812.7 786.1,720 745.8,683.3 "/>
<polyline class="st1" points="473.1,251.4 405.4,404.7 523.1,412.3 554.1,418.3 668,374.8 684.6,506.8 "/>
<line class="st1" x1="612.8" y1="522.7" x2="554.1" y2="418.3"/>
<polyline class="st1" points="831.9,289 770.7,254.2 731.6,234.4 692.7,309.6 668,374.8 "/>
<polyline class="st1" points="349.4,552.8 387.6,548.5 430.7,578.8 492.4,610.7 556,632.7 "/>
<g>
	<circle class="st2" cx="559.5" cy="822" r="5.8"/>
</g>
<g>
	<circle class="st2" cx="745.8" cy="683.3" r="5.8"/>
</g>
<g>
	<circle class="st2" cx="684.6" cy="506.8" r="5.8"/>
</g>
<g>
	<circle class="st2" cx="556" cy="632.7" r="5.8"/>
</g>
<g>
	<circle class="st2" cx="612.8" cy="522.7" r="3.5"/>
</g>
<g>
	<circle class="st2" cx="554.1" cy="418.3" r="2.5"/>
</g>
<g>
	<circle class="st2" cx="523.1" cy="412.3" r="2.5"/>
</g>
<g>
	<circle class="st2" cx="668" cy="374.8" r="2.5"/>
</g>
<g>
	<circle class="st2" cx="692.7" cy="309.6" r="2.5"/>
</g>
<g>
	<circle class="st2" cx="731.6" cy="234.4" r="2.5"/>
</g>
<g>
	<circle class="st2" cx="770.7" cy="254.2" r="2.5"/>
</g>
<g>
	<circle class="st2" cx="831.9" cy="289" r="2.1"/>
</g>
<g>
	<circle class="st2" cx="473.1" cy="251.4" r="3"/>
</g>
<g>
	<circle class="st2" cx="405.4" cy="404.7" r="2.1"/>
</g>
<g>
	<circle class="st2" cx="492.4" cy="610.7" r="2.7"/>
</g>
<g>
	<circle class="st2" cx="430.7" cy="578.8" r="2.7"/>
</g>
<g>
	<circle class="st2" cx="387.6" cy="548.5" r="2.7"/>
</g>
<g>
	<circle class="st2" cx="349.4" cy="552.8" r="2.7"/>
</g>
<g>
	<circle class="st2" cx="786.1" cy="720" r="3.5"/>
</g>
<g>
	<circle class="st2" cx="782.1" cy="812.7" r="2.6"/>
</g>
<g>
	<circle class="st2" cx="755" cy="862.4" r="2.6"/>
</g>
</svg>
