<?xml version="1.0" encoding="utf-8"?>
<!-- Generator: Adobe Illustrator 28.1.0, SVG Export Plug-In . SVG Version: 6.00 Build 0)  -->
<svg version="1.1" id="Layer_1" xmlns="http://www.w3.org/2000/svg" xmlns:xlink="http://www.w3.org/1999/xlink" x="0px" y="0px"
	 viewBox="0 0 1080 1080" style="enable-background:new 0 0 1080 1080;" xml:space="preserve">
<style type="text/css">
	.st0{fill:none;}
	.st1{fill:none;stroke:#2A9F2D;stroke-width:1.5;stroke-miterlimit:10;}
	.st2{fill:#FFFFFF;}
</style>
<rect y="-1.3" class="st0" width="1080" height="1080"/>
<polygon class="st1" points="214.8,521.9 379.8,514.8 385,414.6 "/>
<polygon class="st1" points="696,488.6 635.4,430.4 385,414.6 379.8,514.8 "/>
<polyline class="st1" points="339.8,697.1 329.9,608 379.8,514.8 "/>
<polyline class="st1" points="635.4,430.4 648.8,359.9 755.2,304.7 880.9,292.7 853.6,358.2 788.1,346.3 696,488.6 693.7,583.7 "/>
<line class="st1" x1="755.2" y1="304.7" x2="788.1" y2="346.3"/>
<g>
	<circle class="st2" cx="379.8" cy="514.5" r="3.1"/>
</g>
<g>
	<circle class="st2" cx="696" cy="488.3" r="3.1"/>
</g>
<g>
	<circle class="st2" cx="648.8" cy="359.9" r="3.1"/>
</g>
<g>
	<circle class="st2" cx="755.2" cy="304.7" r="3.1"/>
</g>
<g>
	<circle class="st2" cx="788.1" cy="346.3" r="3.1"/>
</g>
<g>
	<circle class="st2" cx="853.6" cy="358.2" r="3.1"/>
</g>
<g>
	<circle class="st2" cx="880.9" cy="292.7" r="3.1"/>
</g>
<g>
	<circle class="st2" cx="214.8" cy="521.9" r="7.1"/>
</g>
<g>
	<circle class="st2" cx="693.7" cy="583.7" r="7.1"/>
</g>
<g>
	<circle class="st2" cx="329.9" cy="608" r="3.1"/>
</g>
<g>
	<circle class="st2" cx="339.8" cy="697.1" r="3.1"/>
</g>
<g>
	<circle class="st2" cx="385" cy="414.8" r="4.7"/>
</g>
<g>
	<circle class="st2" cx="635.4" cy="430.4" r="4.7"/>
</g>
</svg>
