<?xml version="1.0" encoding="utf-8"?>
<!-- Generator: Adobe Illustrator 28.1.0, SVG Export Plug-In . SVG Version: 6.00 Build 0)  -->
<svg version="1.1" id="Layer_1" xmlns="http://www.w3.org/2000/svg" xmlns:xlink="http://www.w3.org/1999/xlink" x="0px" y="0px"
	 viewBox="0 0 1080 1080" style="enable-background:new 0 0 1080 1080;" xml:space="preserve">
<style type="text/css">
	.st0{fill:none;}
	.st1{fill:none;stroke:#2A9F2D;stroke-width:1.5;stroke-miterlimit:10;}
	.st2{fill:#FFFFFF;}
</style>
<rect y="-1.3" class="st0" width="1080" height="1080"/>
<polygon class="st1" points="344.5,421.2 408.4,399 470.9,415 561.8,493.5 590.1,574.6 488.6,618.1 444.7,578.2 "/>
<polyline class="st1" points="692.6,364.9 691.2,453.6 649.1,370.2 "/>
<polyline class="st1" points="561.8,493.5 691.2,453.6 733.4,621.2 590.1,574.6 "/>
<g>
	<circle class="st2" cx="444.7" cy="578.2" r="3.1"/>
</g>
<g>
	<circle class="st2" cx="590.1" cy="574.6" r="4.3"/>
</g>
<g>
	<circle class="st2" cx="733.4" cy="621.2" r="4.3"/>
</g>
<g>
	<circle class="st2" cx="691.2" cy="453.6" r="4.3"/>
</g>
<g>
	<circle class="st2" cx="561.8" cy="493.5" r="6.7"/>
</g>
<g>
	<circle class="st2" cx="488.6" cy="618.1" r="3.1"/>
</g>
<g>
	<circle class="st2" cx="649.1" cy="370.2" r="3.1"/>
</g>
<g>
	<circle class="st2" cx="692.6" cy="364.9" r="3.1"/>
</g>
<g>
	<circle class="st2" cx="344.5" cy="421.2" r="3.1"/>
</g>
<g>
	<circle class="st2" cx="408.4" cy="399" r="3.1"/>
</g>
<g>
	<circle class="st2" cx="470.9" cy="415" r="3.1"/>
</g>
</svg>
