<?xml version="1.0" encoding="UTF-8"?>
<svg xmlns="http://www.w3.org/2000/svg" version="1.1" viewBox="0 0 1080 1080">
  <defs>
    <style>
      .cls-1 {
        fill: none;
        stroke: #2a9f2d;
        stroke-miterlimit: 10;
        stroke-width: 1.5px;
      }

      .cls-2 {
        fill: none;
      }

      .cls-3 {
        fill: #fff;
      }
    </style>
  </defs>
  <!-- Generator: Adobe Illustrator 28.7.1, SVG Export Plug-In . SVG Version: 1.2.0 Build 142)  -->
  <g>
    <g id="Layer_1">
      <rect class="cls-2" y="-1.3" width="1080" height="1080"/>
      <polyline class="cls-1" points="475.7 940 497.9 852.6 546.2 685 396.8 321 433.2 178 522.1 204.7 606.5 234.7 655.9 430.6 694.3 595 546.2 685"/>
      <polyline class="cls-1" points="738.7 827.8 747.5 766.6 718.7 701.9 694.3 595 735.8 555.5 780.4 490.8 800.3 473.1 727.6 369.8 652.8 284.6 606.5 234.7"/>
      <polyline class="cls-1" points="331.6 581.3 375.5 356 396.8 321"/>
      <circle class="cls-3" cx="606.5" cy="234.7" r="4"/>
      <circle class="cls-3" cx="396.8" cy="321" r="4"/>
      <circle class="cls-3" cx="375.5" cy="356" r="3.5"/>
      <circle class="cls-3" cx="331.6" cy="581.3" r="3.5"/>
      <circle class="cls-3" cx="546.2" cy="685" r="7.1"/>
      <circle class="cls-3" cx="694.3" cy="595" r="5.3"/>
      <circle class="cls-3" cx="727.6" cy="369.8" r="4"/>
      <circle class="cls-3" cx="800.3" cy="473.1" r="4"/>
      <circle class="cls-3" cx="780.4" cy="490.8" r="4"/>
      <circle class="cls-3" cx="735.8" cy="556.1" r="3"/>
      <circle class="cls-3" cx="718.7" cy="701.9" r="3.5"/>
      <circle class="cls-3" cx="738.7" cy="827.8" r="3.5"/>
      <circle class="cls-3" cx="747.5" cy="766.6" r="3.5"/>
      <circle class="cls-3" cx="497.9" cy="852.6" r="3.5"/>
      <circle class="cls-3" cx="475.7" cy="940" r="3.1"/>
      <circle class="cls-3" cx="433.2" cy="178" r="6.7"/>
    </g>
  </g>
</svg>