<?xml version="1.0" encoding="UTF-8"?>
<svg id="Layer_1" data-name="Layer 1" xmlns="http://www.w3.org/2000/svg" version="1.1" viewBox="0 0 1080 1080">
  <defs>
    <style>
      .cls-1 {
        fill: none;
      }

      .cls-1, .cls-2 {
        stroke-width: 0px;
      }

      .cls-3 {
        fill: none;
        stroke: #2a9f2d;
        stroke-miterlimit: 10;
        stroke-width: 1.5px;
      }

      .cls-2 {
        fill: #fff;
      }
    </style>
  </defs>
  <rect class="cls-1" y="-1.3" width="1080" height="1080"/>
  <polygon class="cls-3" points="660.4 279.8 656.9 352.9 606.8 432.5 545.6 429.2 616.1 337.9 660.4 279.8"/>
  <polyline class="cls-3" points="923.3 348.1 704.8 432.5 606.8 432.5 611.6 545.1 622.3 639.6 394.8 659.1 471.5 476.2 545.6 429.2"/>
  <line class="cls-3" x1="616.1" y1="337.9" x2="656.9" y2="352.9"/>
  <line class="cls-3" x1="639.6" y1="690.1" x2="622.3" y2="639.6"/>
  <polyline class="cls-3" points="444.5 846.9 394.8 853.3 378.9 757.5 394.8 659.1"/>
  <polyline class="cls-3" points="384 406.8 341.2 401.7 346.7 447.6 369.8 468.4 471.5 476.2"/>
  <circle class="cls-2" cx="622.3" cy="639.6" r="6.7"/>
  <circle class="cls-2" cx="394.8" cy="659.1" r="6.7"/>
  <circle class="cls-2" cx="394.8" cy="853.3" r="6.7"/>
  <circle class="cls-2" cx="639.6" cy="690.1" r="4.2"/>
  <circle class="cls-2" cx="611.6" cy="545.1" r="4.2"/>
  <circle class="cls-2" cx="606.8" cy="432.5" r="3.8"/>
  <circle class="cls-2" cx="471.5" cy="476.2" r="3.8"/>
  <circle class="cls-2" cx="369.8" cy="468.4" r="3.8"/>
  <circle class="cls-2" cx="341.2" cy="401.7" r="3.3"/>
  <circle class="cls-2" cx="384" cy="406.8" r="3.3"/>
  <circle class="cls-2" cx="346.7" cy="447.6" r="3.8"/>
  <circle class="cls-2" cx="656.9" cy="352.9" r="3.8"/>
  <circle class="cls-2" cx="660.4" cy="278.9" r="3.8"/>
  <circle class="cls-2" cx="616.1" cy="337.9" r="5.8"/>
  <circle class="cls-2" cx="545.6" cy="429.2" r="5.8"/>
  <circle class="cls-2" cx="704.8" cy="432.3" r="3.8"/>
  <circle class="cls-2" cx="923.3" cy="348.1" r="3.8"/>
  <circle class="cls-2" cx="378.9" cy="757.5" r="4.2"/>
  <circle class="cls-2" cx="444.5" cy="846.9" r="4.2"/>
</svg>