<?xml version="1.0" encoding="UTF-8"?>
<svg id="Layer_1" data-name="Layer 1" xmlns="http://www.w3.org/2000/svg" version="1.1" viewBox="0 0 1080 1080">
  <defs>
    <style>
      .cls-1 {
        fill: none;
      }

      .cls-1, .cls-2 {
        stroke-width: 0px;
      }

      .cls-3 {
        stroke-linejoin: round;
      }

      .cls-3, .cls-4 {
        fill: none;
        stroke: #2a9f2d;
        stroke-width: 1.5px;
      }

      .cls-4 {
        stroke-miterlimit: 10;
      }

      .cls-2 {
        fill: #fff;
      }
    </style>
  </defs>
  <rect class="cls-1" y="-1.3" width="1080" height="1080"/>
  <polygon class="cls-4" points="576.4 492.8 519.9 521.9 539.3 569.5 712.1 674.2 810.5 578.6 735.1 576.6 708.7 479.1 622.1 508.8 576.4 492.8"/>
  <line class="cls-4" x1="787.4" y1="391.7" x2="708.7" y2="479.1"/>
  <polyline class="cls-4" points="539.3 569.5 622.1 508.8 735.1 576.6 712.1 674.2 735.8 727.6"/>
  <polyline class="cls-3" points="440.2 312.1 461.9 334.7 504.2 378 529.6 393.9 564.2 380.2 504.2 378"/>
  <circle class="cls-2" cx="519.9" cy="521.9" r="3.5"/>
  <circle class="cls-2" cx="622.1" cy="508.8" r="3.5"/>
  <circle class="cls-2" cx="735.1" cy="576.6" r="2.9"/>
  <circle class="cls-2" cx="712.1" cy="674.2" r="3.3"/>
  <circle class="cls-2" cx="810.5" cy="578.6" r="2.2"/>
  <circle class="cls-2" cx="708.7" cy="479.1" r="2.2"/>
  <circle class="cls-2" cx="787.4" cy="391.7" r="2.2"/>
  <circle class="cls-2" cx="564.2" cy="380.2" r="2.2"/>
  <circle class="cls-2" cx="529.6" cy="393.9" r="2.2"/>
  <circle class="cls-2" cx="461.9" cy="334.7" r="2.2"/>
  <circle class="cls-2" cx="504.2" cy="378.1" r="3.2"/>
  <circle class="cls-2" cx="440.2" cy="312.1" r="3.2"/>
  <circle class="cls-2" cx="735.8" cy="727.6" r="2.2"/>
  <circle class="cls-2" cx="539.6" cy="569.5" r="5.1"/>
  <circle class="cls-2" cx="576.4" cy="492.8" r="6.9"/>
</svg>