<?xml version="1.0" encoding="UTF-8"?>
<svg id="Layer_1" data-name="Layer 1" xmlns="http://www.w3.org/2000/svg" version="1.1" viewBox="0 0 1080 1080">
  <defs>
    <style>
      .cls-1 {
        fill: none;
      }

      .cls-1, .cls-2 {
        stroke-width: 0px;
      }

      .cls-3 {
        fill: none;
        stroke: #2a9f2d;
        stroke-miterlimit: 10;
        stroke-width: 1.5px;
      }

      .cls-2 {
        fill: #fff;
      }
    </style>
  </defs>
  <rect class="cls-1" y="-1.3" width="1080" height="1080"/>
  <polyline class="cls-3" points="251.4 764.4 330 758.2 344.2 761.3 292.7 807.8 272.1 836.7 326.8 900 440.8 897.6 519.4 874.6 531.9 770.7 540.5 681.3 616.5 536.4 652.4 495 697.1 476.9 817 416.1"/>
  <polyline class="cls-3" points="759.3 334.4 794.2 345.7 817 416.1 816.3 500.5 818.5 575.7"/>
  <circle class="cls-2" cx="251.4" cy="764.4" r="2.2"/>
  <circle class="cls-2" cx="330" cy="758.2" r="2.8"/>
  <circle class="cls-2" cx="344.2" cy="761.3" r="2.8"/>
  <circle class="cls-2" cx="292.7" cy="807.8" r="2.8"/>
  <circle class="cls-2" cx="272.1" cy="836.7" r="2.8"/>
  <circle class="cls-2" cx="326.8" cy="900" r="5.5"/>
  <circle class="cls-2" cx="440.8" cy="897.6" r="3.8"/>
  <circle class="cls-2" cx="519.4" cy="874.6" r="2.3"/>
  <circle class="cls-2" cx="531.9" cy="770.7" r="2.3"/>
  <circle class="cls-2" cx="540.5" cy="681.3" r="3.9"/>
  <circle class="cls-2" cx="616.5" cy="536.4" r="3.9"/>
  <circle class="cls-2" cx="697.1" cy="476.9" r="4.7"/>
  <circle class="cls-2" cx="817" cy="416.1" r="5.5"/>
  <circle class="cls-2" cx="794.2" cy="345.7" r="4.4"/>
  <circle class="cls-2" cx="759.3" cy="334.4" r="2.9"/>
  <circle class="cls-2" cx="816.3" cy="500.5" r="4.1"/>
  <circle class="cls-2" cx="818.5" cy="575" r="3"/>
  <circle class="cls-2" cx="652.4" cy="495" r="7.3"/>
</svg>