<?xml version="1.0" encoding="UTF-8"?>
<svg id="Layer_1" data-name="Layer 1" xmlns="http://www.w3.org/2000/svg" version="1.1" viewBox="0 0 1080 1080">
  <defs>
    <style>
      .cls-1 {
        fill: none;
      }

      .cls-1, .cls-2 {
        stroke-width: 0px;
      }

      .cls-3 {
        fill: none;
        stroke: #2a9f2d;
        stroke-linejoin: round;
        stroke-width: 1.5px;
      }

      .cls-2 {
        fill: #fff;
      }
    </style>
  </defs>
  <rect class="cls-1" y="-1.3" width="1080" height="1080"/>
  <polyline class="cls-3" points="161.7 491.5 364.2 497.8 484.9 535.7 299.3 633.3 176.7 627.5"/>
  <polyline class="cls-3" points="631.6 328.2 661.1 464 722.4 551.3 596.9 624.6 527.5 725.9"/>
  <polyline class="cls-3" points="484.9 535.7 722.4 551.3 820.7 537.2 952.7 493.9 975.3 408.1 888.2 368.2 820.7 537.2"/>
  <circle class="cls-2" cx="161.7" cy="491.5" r="3.1"/>
  <circle class="cls-2" cx="176.7" cy="627.5" r="3.1"/>
  <circle class="cls-2" cx="484.9" cy="535.7" r="4.7"/>
  <circle class="cls-2" cx="527.5" cy="725.9" r="8.5"/>
  <circle class="cls-2" cx="722.4" cy="551.3" r="4.7"/>
  <circle class="cls-2" cx="631.6" cy="328.2" r="4.7"/>
  <circle class="cls-2" cx="364.2" cy="497.8" r="3.1"/>
  <circle class="cls-2" cx="661.1" cy="464" r="3.1"/>
  <circle class="cls-2" cx="596.9" cy="624.6" r="3.1"/>
  <circle class="cls-2" cx="820.7" cy="537.2" r="3.1"/>
  <circle class="cls-2" cx="975.3" cy="408.1" r="3.1"/>
  <circle class="cls-2" cx="952.7" cy="493.9" r="3.1"/>
  <circle class="cls-2" cx="888.2" cy="368.2" r="3.1"/>
  <circle class="cls-2" cx="299.3" cy="633.3" r="3.1"/>
</svg>